<svg width="800" height="800" viewBox="-4 0 30 30" xmlns="http://www.w3.org/2000/svg"><defs><style>.cls-1{fill:none;stroke:#000;stroke-linecap:round;stroke-linejoin:round}</style></defs><g data-name="Layer 2" id="Layer_2"><g id="Interface-Light"><g id="interface-light-award-medal-1"><path class="cls-1" d="M21.5.5H.5M21.5.5l-4.5 12M.5.5l4.5 12"/><circle class="cls-1" cx="11" cy="20" r="9.5"/><path class="cls-1" d="m8 .5 1 10M14 .5l-1 10M11.49 15.35l.91 2.59a.52.52 0 0 0 .46.36l2.64.11a.54.54 0 0 1 .3 1l-2.07 1.71a.58.58 0 0 0-.18.57l.72 2.66a.53.53 0 0 1-.79.6l-2.19-1.54a.51.51 0 0 0-.58 0l-2.19 1.5a.53.53 0 0 1-.79-.6l.72-2.66a.58.58 0 0 0-.18-.57L6.2 19.37a.54.54 0 0 1 .3-1l2.64-.11a.52.52 0 0 0 .46-.36l.91-2.59a.52.52 0 0 1 .98.04Z"/></g></g></g></svg>