<svg width="800" height="800" viewBox="0 0 32 32" xmlns="http://www.w3.org/2000/svg"><path d="m30.87 26-10-17.32a1 1 0 0 0-.61-.47 1 1 0 0 0-.76.1l-6.06 3.5a1 1 0 0 0-.37 1.37l10 17.32a1 1 0 0 0 .87.5 1 1 0 0 0 .86-.5l1.74-3H30a1 1 0 0 0 .87-.5 1 1 0 0 0 0-1Z"/><path d="m18.56 11.81-6.06-3.5a1.05 1.05 0 0 0-.76-.1 1 1 0 0 0-.61.47L1.13 26a1 1 0 0 0 0 1 1 1 0 0 0 .87.5h3.46l1.74 3a1 1 0 0 0 .86.5 1 1 0 0 0 .87-.5l10-17.32a1 1 0 0 0-.37-1.37Z"/><circle cx="16" cy="13" r="12" style="fill:#b2b2b2"/><path d="M23 10.33a1 1 0 0 0-.8-.68l-3.63-.53-1.67-3.31a1 1 0 0 0-1.8 0l-1.62 3.31-3.63.53a1 1 0 0 0-.55 1.71l2.63 2.58-.62 3.64a1 1 0 0 0 .4 1 1 1 0 0 0 1 .07L16 16.92l3.24 1.71a1 1 0 0 0 .47.12 1 1 0 0 0 .58-.19 1 1 0 0 0 .4-1l-.62-3.64 2.63-2.58a1 1 0 0 0 .3-1.01Z"/></svg>