<svg width="800" height="800" viewBox="0 -1.26 122.88 122.88" xmlns="http://www.w3.org/2000/svg" style="enable-background:new 0 0 122.88 120.36" xml:space="preserve"><path d="M8.94 102.48h85.62c3.71-3.85 8.02-14.75 12.45-25.96 1.41-3.57 2.83-7.17 4.3-10.66-6.43.02-15.18-.61-16.52-2.15-1.04-1.19-.66-2.93.91-5.12l18.93-18.48c1.77-1.6 3.31-2.21 4.62-1.81 1.3.39 2.38 1.76 3.23 4.13.48 7.13.43 14.27-.63 21.4-.58.34-1.18.63-1.79.89-2.01 4.48-4.01 9.56-6 14.58-3.41 8.63-6.75 17.09-10.52 23.18h10.39c4.92 0 8.94 4.02 8.94 8.94s-4.02 8.94-8.94 8.94h-105c-4.92 0-8.94-4.02-8.94-8.94.01-4.91 4.03-8.94 8.95-8.94zm27.49-66.09-.27-.45-7.06 1.01-2.56 15.65a5.372 5.372 0 0 1-6.16 4.44 5.372 5.372 0 0 1-4.44-6.16l3.2-19.55a5.366 5.366 0 0 1 4.54-4.45l13.67-1.96 10.11-2.21c5.76.19 10.06 2.61 12 7.7.28.35.52.75.71 1.18l5.42 12.39 17.68 1.1c2.96.17 5.22 2.72 5.04 5.68-.17 2.96-2.72 5.22-5.68 5.05l-20.97-1.3a5.385 5.385 0 0 1-4.69-3.41l-1.1-2.51-2.25 9.79 14.84 8.74c1.29.75 2.14 1.96 2.48 3.3h.02l5.39 21.11a5.381 5.381 0 0 1-10.43 2.65L61.1 75.19l-1.24-.73-15.42-5.87-.83.46-4.71 12.49c-.34.9-.89 1.65-1.58 2.23L19.65 98.6a5.383 5.383 0 0 1-7.57-.67c-1.9-2.28-1.6-5.66.67-7.57L29.03 76.7c1.19-13.8 3.79-27.2 7.4-40.31zM57.91 0c5.64 0 10.21 4.57 10.21 10.21 0 5.64-4.57 10.21-10.21 10.21-5.64 0-10.21-4.57-10.21-10.21C47.7 4.57 52.27 0 57.91 0z" style="fill-rule:evenodd;clip-rule:evenodd"/></svg>